<svg width="25" height="25" viewBox="0 0 25 25" fill="none" xmlns="http://www.w3.org/2000/svg">
<path d="M2.92695 5.41289C2.88066 4.08184 3.91758 2.85449 5.31934 2.85449H19.6826C21.0844 2.85449 22.1213 4.08184 22.075 5.41289C22.0305 6.69141 22.0883 8.34766 22.5051 9.69805C22.9232 11.0527 23.6283 11.9088 24.7832 12.0189V13.2664C23.6283 13.3766 22.9232 14.2326 22.5051 15.5873C22.0883 16.9377 22.0305 18.5939 22.075 19.8725C22.1213 21.2035 21.0844 22.4307 19.6826 22.4307H5.31934C3.91758 22.4307 2.88066 21.2033 2.92695 19.8725C2.97148 18.5939 2.91367 16.9377 2.49668 15.5873C2.07871 14.2328 1.37168 13.3766 0.216797 13.2664V12.0189C1.37168 11.909 2.07871 11.0527 2.49668 9.69805C2.91367 8.34766 2.97129 6.69141 2.92695 5.41289Z" fill="url(#paint0_linear_2_429)"/>
<g filter="url(#filter0_d_2_429)">
<path d="M13.1081 17.9176C15.3774 17.9176 16.7449 16.8065 16.7449 14.9738C16.7449 13.5884 15.7692 12.5855 14.3204 12.4267V12.369C15.3848 12.1959 16.2201 11.2074 16.2201 10.1034C16.2201 8.53048 14.9783 7.50586 13.0859 7.50586H8.82812V17.9176H13.1081ZM10.4839 8.82628H12.6868C13.8843 8.82628 14.5643 9.36021 14.5643 10.3271C14.5643 11.3589 13.7734 11.9361 12.3393 11.9361H10.4839V8.82628ZM10.4839 16.5972V13.1699H12.6719C14.239 13.1699 15.0522 13.7471 15.0522 14.8727C15.0522 15.9983 14.2612 16.5972 12.768 16.5972H10.4839Z" fill="url(#paint1_linear_2_429)"/>
</g>
<defs>
<filter id="filter0_d_2_429" x="8.33681" y="7.13737" width="8.89866" height="11.3947" filterUnits="userSpaceOnUse" color-interpolation-filters="sRGB">
<feFlood flood-opacity="0" result="BackgroundImageFix"/>
<feColorMatrix in="SourceAlpha" type="matrix" values="0 0 0 0 0 0 0 0 0 0 0 0 0 0 0 0 0 0 127 0" result="hardAlpha"/>
<feOffset dy="0.12283"/>
<feGaussianBlur stdDeviation="0.24566"/>
<feColorMatrix type="matrix" values="0 0 0 0 0 0 0 0 0 0 0 0 0 0 0 0 0 0 0.15 0"/>
<feBlend mode="normal" in2="BackgroundImageFix" result="effect1_dropShadow_2_429"/>
<feBlend mode="normal" in="SourceGraphic" in2="effect1_dropShadow_2_429" result="shape"/>
</filter>
<linearGradient id="paint0_linear_2_429" x1="3.8673" y1="3.37259" x2="25.3338" y2="20.4129" gradientUnits="userSpaceOnUse">
<stop stop-color="#9013FE"/>
<stop offset="1" stop-color="#6610F2"/>
</linearGradient>
<linearGradient id="paint1_linear_2_429" x1="9.5772" y1="8.19102" x2="14.3752" y2="16.306" gradientUnits="userSpaceOnUse">
<stop stop-color="white"/>
<stop offset="1" stop-color="#F1E5FC"/>
</linearGradient>
</defs>
</svg>
