<svg width="30" height="30" viewBox="0 0 30 30" fill="none" xmlns="http://www.w3.org/2000/svg">
<path d="M23.7501 6.25L15.0001 2.5L6.25008 6.25L10.6251 8.125V10.625M23.7501 6.25L19.3751 8.125V10.625M23.7501 6.25V11.25M10.6251 10.625C10.6251 10.625 12.0838 10 15.0001 10C17.9163 10 19.3751 10.625 19.3751 10.625M10.6251 10.625V11.875C10.6251 12.4495 10.7382 13.0184 10.9581 13.5492C11.178 14.08 11.5002 14.5623 11.9065 14.9686C12.3127 15.3748 12.795 15.6971 13.3258 15.917C13.8566 16.1368 14.4255 16.25 15.0001 16.25C15.5746 16.25 16.1435 16.1368 16.6743 15.917C17.2051 15.6971 17.6874 15.3748 18.0937 14.9686C18.4999 14.5623 18.8222 14.08 19.042 13.5492C19.2619 13.0184 19.3751 12.4495 19.3751 11.875V10.625M9.72883 20.8787C8.35383 21.735 4.74633 23.4813 6.94258 25.6675C8.01633 26.7375 9.21258 27.5 10.7138 27.5H19.2863C20.7888 27.5 21.9838 26.7363 23.0576 25.6675C25.2538 23.4813 21.6476 21.735 20.2713 20.88C18.6889 19.8967 16.8631 19.3757 15.0001 19.3757C13.1371 19.3757 11.3112 19.8967 9.72883 20.88" stroke="black" stroke-width="1.5" stroke-linecap="round" stroke-linejoin="round"/>
</svg>
