<svg width="31" height="31" viewBox="0 0 31 31" fill="none" xmlns="http://www.w3.org/2000/svg">
<path fill-rule="evenodd" clip-rule="evenodd" d="M6.45898 25.8337C5.43127 25.8337 4.44565 25.4254 3.71895 24.6987C2.99224 23.972 2.58398 22.9864 2.58398 21.9587V9.04199C2.58398 8.01428 2.99224 7.02866 3.71895 6.30195C4.44565 5.57525 5.43127 5.16699 6.45898 5.16699H24.5423C25.57 5.16699 26.5557 5.57525 27.2824 6.30195C28.0091 7.02866 28.4173 8.01428 28.4173 9.04199V21.9587C28.4173 22.9864 28.0091 23.972 27.2824 24.6987C26.5557 25.4254 25.57 25.8337 24.5423 25.8337H6.45898ZM9.84961 10.6178C9.71803 10.5055 9.56523 10.4207 9.40026 10.3685C9.23529 10.3164 9.06152 10.2979 8.88927 10.3142C8.71702 10.3305 8.5498 10.3812 8.39752 10.4633C8.24525 10.5455 8.11104 10.6574 8.00285 10.7924C7.89466 10.9274 7.8147 11.0828 7.76772 11.2493C7.72073 11.4159 7.70768 11.5901 7.72933 11.7618C7.75099 11.9334 7.80691 12.099 7.89378 12.2486C7.98065 12.3983 8.09669 12.5289 8.23503 12.6328L13.0788 16.5091C13.7661 17.0594 14.6202 17.3592 15.5007 17.3592C16.3811 17.3592 17.2352 17.0594 17.9225 16.5091L22.7663 12.6341C22.8988 12.5281 23.0091 12.397 23.0909 12.2484C23.1727 12.0997 23.2244 11.9364 23.2432 11.7678C23.2619 11.5992 23.2472 11.4285 23.1999 11.2655C23.1527 11.1026 23.0738 10.9505 22.9678 10.818C22.8618 10.6856 22.7307 10.5753 22.5821 10.4934C22.4334 10.4116 22.2701 10.3599 22.1015 10.3412C21.9328 10.3224 21.7622 10.3371 21.5992 10.3844C21.4362 10.4316 21.2842 10.5105 21.1517 10.6165L16.3079 14.4915C16.0789 14.675 15.7941 14.7749 15.5007 14.7749C15.2072 14.7749 14.9225 14.675 14.6934 14.4915L9.84961 10.6178Z" fill="black"/>
</svg>
