<svg width="36" height="36" viewBox="0 0 36 36" fill="none" xmlns="http://www.w3.org/2000/svg">
<path d="M22.4998 27.45C21.8248 27.45 21.3748 27.225 20.6998 27L17.9998 25.875L15.2998 27C14.8498 27.225 14.1748 27.45 13.4998 27.45C13.0498 27.45 12.8248 27.45 12.3748 27.225L11.2498 36L17.9998 31.5L24.7498 36L23.3998 27.225C23.1748 27.45 22.7248 27.45 22.4998 27.45ZM29.0248 13.275C28.7998 12.825 28.7998 12.15 29.0248 11.7L30.3748 9C30.8248 8.1 30.3748 6.975 29.2498 6.525L26.3248 5.4C25.8748 5.175 25.4248 4.725 25.1998 4.275L24.0748 1.35C23.8498 0.45 23.1748 0 22.4998 0C22.2748 0 21.8248 0 21.5998 0.225L18.6748 1.575H17.9998C17.7748 1.575 17.5498 1.575 17.3248 1.35L14.3998 0.225C14.1748 0 13.7248 0 13.4998 0C12.8248 0 12.1498 0.45 11.6998 1.125L10.5748 4.275C10.5748 4.725 10.1248 5.175 9.67478 5.4L6.52478 6.525C5.62478 6.75 5.17478 7.875 5.62478 9L6.97478 11.925C7.19978 12.375 7.19978 13.05 6.97478 13.5L5.62478 16.2C5.17478 17.1 5.62478 18.225 6.74978 18.675L9.67478 19.8C10.1248 20.025 10.5748 20.475 10.7998 20.925L11.9248 23.85C12.1498 24.75 12.8248 25.2 13.4998 25.2C13.7248 25.2 13.9498 25.2 14.1748 24.975L17.0998 23.625C17.3248 23.625 17.5498 23.4 17.7748 23.4C17.9998 23.4 18.2248 23.4 18.4498 23.625L21.3748 24.975C21.5998 25.2 21.8248 25.2 22.0498 25.2C22.7248 25.2 23.3998 24.75 23.8498 24.075L24.9748 21.15C25.1998 20.7 25.6498 20.25 26.0998 20.025L29.0248 18.9C29.9248 18.45 30.5998 17.325 30.1498 16.425L29.0248 13.275ZM17.9998 21.6C13.0498 21.6 8.99978 17.55 8.99978 12.6C8.99978 7.65 13.0498 3.6 17.9998 3.6C22.9498 3.6 26.9998 7.65 26.9998 12.6C26.9998 17.55 22.9498 21.6 17.9998 21.6Z" fill="black"/>
<path d="M24.75 12.6C24.75 14.3902 24.0388 16.1071 22.773 17.3729C21.5071 18.6388 19.7902 19.35 18 19.35C16.2098 19.35 14.4929 18.6388 13.227 17.3729C11.9612 16.1071 11.25 14.3902 11.25 12.6C11.25 10.8098 11.9612 9.09288 13.227 7.82701C14.4929 6.56113 16.2098 5.84998 18 5.84998C19.7902 5.84998 21.5071 6.56113 22.773 7.82701C24.0388 9.09288 24.75 10.8098 24.75 12.6Z" fill="black"/>
</svg>
