<svg width="20" height="19" viewBox="0 0 20 19" fill="none" xmlns="http://www.w3.org/2000/svg">
<path d="M9.54755 0C-1.38607 0.229042 -3.66116 14.9002 6.56618 18.4192C7.04343 18.5083 7.22168 18.2093 7.22168 17.9611V16.3511C4.54793 16.927 3.98251 15.089 3.98251 15.089C3.80332 14.5136 3.42165 14.0226 2.90822 13.707C2.0438 13.1205 2.97722 13.1301 2.97722 13.1301C3.28302 13.1701 3.57528 13.2808 3.8308 13.4535C4.08633 13.6262 4.29807 13.8561 4.44922 14.1249C4.7203 14.5968 5.16579 14.9434 5.68984 15.0902C6.21389 15.237 6.77462 15.1722 7.25139 14.9097C7.30122 14.4306 7.51493 13.985 7.85801 13.6476C5.72093 13.408 3.48418 12.5935 3.48418 8.97575C3.47146 8.03323 3.82857 7.12326 4.47893 6.44096C4.17747 5.61948 4.21295 4.71214 4.57764 3.91671C4.57764 3.91671 5.38264 3.66754 7.22264 4.9105C8.79786 4.4838 10.4582 4.4838 12.0335 4.9105C13.862 3.68767 14.667 3.91575 14.667 3.91575C15.0168 4.70925 15.0484 5.60529 14.7561 6.42083C15.407 7.10272 15.7639 8.01306 15.7499 8.95563C15.7499 12.5839 13.5036 13.3889 11.3665 13.6179C12.3612 14.145 11.9434 17.5337 12.0028 17.9515C12.0028 18.1997 12.1715 18.4977 12.6688 18.4086C22.8674 14.9203 20.4812 0.229042 9.54755 0Z" fill="black"/>
</svg>
