<svg width="21" height="21" viewBox="0 0 21 21" fill="none" xmlns="http://www.w3.org/2000/svg">
<path d="M21 18.0833C21 18.8569 20.6927 19.5987 20.1457 20.1457C19.5987 20.6927 18.8569 21 18.0833 21H2.91667C2.14312 21 1.40125 20.6927 0.854272 20.1457C0.307291 19.5987 0 18.8569 0 18.0833V2.91667C0 2.14312 0.307291 1.40125 0.854272 0.854272C1.40125 0.307291 2.14312 0 2.91667 0H18.0833C18.8569 0 19.5987 0.307291 20.1457 0.854272C20.6927 1.40125 21 2.14312 21 2.91667V18.0833Z" fill="#FF4081"/>
<path d="M15.7849 11.826C15.6861 11.7954 15.5822 11.7847 15.4792 11.7945C15.3762 11.8042 15.2761 11.8342 15.1847 11.8827C15.0934 11.9312 15.0125 11.9973 14.9467 12.0772C14.8809 12.157 14.8315 12.2491 14.8014 12.348C14.3208 13.8985 13.4504 15.5091 13.0555 15.5972C12.7598 15.5972 12.3345 15.3464 11.9133 14.7572C12.8898 12.6607 13.4014 10.0287 13.4014 8.27171C13.4014 3.36412 12.1624 2.33337 11.1218 2.33337C8.93018 2.33337 8.9051 8.11537 8.9051 8.17371C8.9051 8.85387 8.9296 9.48504 8.97568 10.073C8.64494 9.95151 8.29554 9.88854 7.94318 9.88696C5.69152 9.88696 4.66602 12.1089 4.66602 14.1727C4.66602 16.1175 5.75743 18.0834 8.19285 18.0834C9.34318 18.0834 10.3127 17.3303 11.0949 16.2045C11.7879 16.9249 12.5136 17.1938 13.0549 17.1938C14.76 17.1938 15.8888 14.1412 16.2959 12.827C16.3589 12.6264 16.3406 12.4092 16.2451 12.222C16.1495 12.0348 15.9843 11.8926 15.7849 11.826ZM8.19402 16.4874C6.42593 16.4874 6.23402 14.8686 6.23402 14.1721C6.23402 14.0625 6.25385 11.4824 7.94435 11.4824C8.61168 11.4824 9.12385 11.9986 9.12385 11.9986C9.16235 12.0395 9.20357 12.0752 9.24752 12.106C9.46627 13.2166 9.77485 14.1045 10.1318 14.808C9.54618 15.8218 8.86777 16.4874 8.19402 16.4874ZM11.0249 12.7902C10.6988 11.6644 10.4731 10.153 10.4731 8.17371C10.4731 6.35021 10.8616 4.63404 11.1842 4.04779C11.4315 4.42346 11.8346 5.59362 11.8346 8.27171C11.8346 9.69271 11.5202 11.3435 11.0249 12.7902Z" fill="white"/>
</svg>
