<svg width="21" height="21" viewBox="0 0 21 21" fill="none" xmlns="http://www.w3.org/2000/svg">
<path d="M18.5391 7.5797e-05H1.47656C1.08943 -0.00386413 0.716538 0.145935 0.439718 0.416602C0.162899 0.68727 0.00475966 1.0567 0 1.44383V18.5752C0.00562043 18.9618 0.164138 19.3304 0.440864 19.6003C0.717589 19.8703 1.08999 20.0196 1.47656 20.0157H18.5391C18.9262 20.0188 19.2989 19.8685 19.5755 19.5976C19.8522 19.3268 20.0104 18.9574 20.0156 18.5703V1.4389C20.0087 1.05291 19.8497 0.685245 19.5733 0.41582C19.2968 0.146394 18.9251 -0.00301213 18.5391 7.5797e-05Z" fill="#0076B2"/>
<path d="M2.96281 7.50262H5.93398V17.0625H2.96281V7.50262ZM4.44922 2.74481C4.79 2.74481 5.12312 2.84589 5.40645 3.03525C5.68977 3.22461 5.91057 3.49375 6.0409 3.80862C6.17124 4.12349 6.20526 4.46994 6.13865 4.80415C6.07205 5.13835 5.90782 5.4453 5.66674 5.68615C5.42566 5.927 5.11856 6.09094 4.78429 6.15722C4.45002 6.22351 4.1036 6.18916 3.78885 6.05852C3.4741 5.92789 3.20518 5.70684 3.01609 5.42333C2.82699 5.13983 2.72624 4.80661 2.72656 4.46583C2.727 4.00924 2.90868 3.57149 3.2317 3.24879C3.55471 2.92608 3.99263 2.74481 4.44922 2.74481ZM7.79773 7.50262H10.6459V8.81512H10.6852C11.0823 8.06372 12.0502 7.2713 13.4956 7.2713C16.5045 7.26473 17.0623 9.24497 17.0623 11.8125V17.0625H14.0912V12.4114C14.0912 11.304 14.0715 9.87825 12.5473 9.87825C11.0232 9.87825 10.764 11.0857 10.764 12.3392V17.0625H7.79773V7.50262Z" fill="white"/>
</svg>
